<svg version="1.0" xmlns="http://www.w3.org/2000/svg"
 width="200.000000pt" height="196.000000pt" viewBox="0 0 200.000000 196.000000"
 preserveAspectRatio="xMidYMid meet">
<g transform="translate(0.000000,196.000000) scale(0.100000,-0.100000)"
fill="#000000" stroke="none">
<path d="M771 1847 c-6 -8 -14 -28 -17 -45 -8 -39 -11 -39 -36 -7 -37 47 -86
25 -163 -75 -39 -51 -53 -61 -117 -86 -127 -47 -149 -75 -114 -143 l15 -28
-40 11 c-35 9 -42 8 -61 -11 -17 -17 -22 -39 -29 -115 -9 -110 -11 -116 -60
-189 -62 -92 -61 -131 2 -161 31 -16 31 -16 8 -23 -36 -11 -59 -35 -59 -62 0
-29 10 -50 57 -119 31 -46 36 -64 48 -160 11 -92 17 -111 36 -127 17 -13 32
-17 56 -12 36 6 40 0 18 -29 -38 -50 -8 -84 113 -131 60 -24 80 -37 114 -79
57 -71 98 -106 124 -106 13 0 37 12 55 28 23 19 31 22 26 10 -11 -29 12 -77
40 -84 14 -4 68 3 120 15 l94 21 88 -21 c113 -28 137 -23 153 34 l11 43 28
-28 c15 -16 36 -28 46 -28 10 0 54 38 98 85 72 76 88 88 152 111 40 15 81 35
92 46 25 23 27 60 5 93 -18 28 -16 29 20 15 61 -23 96 26 96 135 0 68 12 107
55 171 67 100 67 137 2 171 l-32 16 28 8 c72 20 73 56 2 172 -44 73 -47 82
-53 171 -9 118 -24 141 -90 133 -39 -4 -42 -3 -29 12 25 28 30 60 13 85 -9 15
-50 38 -107 62 -84 35 -96 43 -143 102 -62 78 -98 98 -138 74 -16 -9 -28 -20
-28 -24 0 -4 -4 -8 -10 -8 -5 0 -10 12 -10 26 0 69 -33 77 -170 45 -81 -20
-82 -20 -157 0 -89 22 -136 24 -152 6z m361 -147 c39 -17 107 -40 152 -51 152
-38 181 -59 256 -184 24 -38 65 -95 92 -125 91 -101 92 -104 91 -355 0 -254
-1 -257 -87 -355 -31 -36 -76 -99 -100 -140 -66 -113 -95 -134 -243 -174 -49
-13 -123 -38 -166 -55 -103 -41 -152 -41 -266 4 -48 19 -119 42 -157 51 -134
33 -181 68 -252 187 -23 37 -63 93 -90 125 -85 98 -86 99 -88 332 -3 247 5
282 76 362 26 29 73 94 105 143 82 127 110 147 255 183 47 12 117 35 155 51
97 42 170 42 267 1z"/>
<path d="M759 1041 c-34 -35 -36 -59 -8 -95 27 -35 90 -37 113 -4 23 33 20 75
-9 103 -32 33 -60 31 -96 -4z"/>
</g>
</svg>